{"title":"Fate/Stay Night: Unlimited Blade Works","uid":9379627,"size":316059765,"categoryP":"video","categoryS":"movies","magnet":"?xt=urn:btih:5d5370057f0622e2a0e116ab287d11851960de47&amp;dn=Fate%2FStay+Night%3A+Unlimited+Blade+Works&amp;tr=udp%3A%2F%2Ftracker.openbittorrent.com%3A80&amp;tr=udp%3A%2F%2Fopen.demonii.com%3A1337&amp;tr=udp%3A%2F%2Ftracker.coppersurfer.tk%3A6969&amp;tr=udp%3A%2F%2Fexodus.desync.com%3A6969","seeders":1,"leechers":0,"uploader":"p7trick","files":-1,"time":1387690066,"description":"downloaded from watchcartoononline\n\nFate/Stay Night: Unlimited Blade Works english dubbed (movie)\n\n_________________________________________________________\n\nFormat                                   : MPEG-4\nFormat profile                           : Base Media\nCodec ID                                 : isom\nFile size                                : 301 MiB\nDuration                                 : 1h 45mn\nOverall bit rate                         : 399 Kbps\nWriting application                      : Lavf55.0.100\n\nVideo\nID                                       : 1\nFormat                                   : AVC\nFormat/Info                              : Advanced Video Codec\nFormat profile                           : &lt;a class=&quot;__cf_email__&quot; href=&quot;/cdn-cgi/l/email-protection&quot; data-cfemail=&quot;e2a08391878e8b8c87a2aed1ccd2&quot;&gt;[email&amp;#160;protected]&lt;/a&gt;&lt;script cf-hash='f9e31' type=&quot;text/javascript&quot;&gt;\n/* &lt;![CDATA[ */!function(){try{var t=&quot;currentScript&quot;in document?document.currentScript:function(){for(var t=document.getElementsByTagName(&quot;script&quot;),e=t.length;e--;)if(t[e].getAttribute(&quot;cf-hash&quot;))return t[e]}();if(t&amp;&amp;t.previousSibling){var e,r,n,i,c=t.previousSibling,a=c.getAttribute(&quot;data-cfemail&quot;);if(a){for(e=&quot;&quot;,r=parseInt(a.substr(0,2),16),n=2;a.length-n;n+=2)i=parseInt(a.substr(n,2),16)^r,e+=String.fromCharCode(i);e=document.createTextNode(e),c.parentNode.replaceChild(e,c)}}}catch(u){}}();/* ]]&gt; */&lt;/script&gt;\nFormat settings, CABAC                   : No\nFormat settings, ReFrames                : 5 frames\nCodec ID                                 : avc1\nCodec ID/Info                            : Advanced Video Coding\nDuration                                 : 1h 45mn\nBit rate                                 : 266 Kbps\nWidth                                    : 640 pixels\nHeight                                   : 356 pixels\nDisplay aspect ratio                     : 16:9\nFrame rate mode                          : Constant\nFrame rate                               : 23.976 fps\nColor space                              : YUV\nChroma subsampling                       : 4:2:0\nBit depth                                : 8 bits\nScan type                                : Progressive\nBits/(Pixel*Frame)                       : 0.049\nStream size                              : 201 MiB (67%)\n\n\nAudio\nID                                       : 2\nFormat                                   : AAC\nFormat/Info                              : Advanced Audio Codec\nFormat profile                           : LC\nCodec ID                                 : 40\nDuration                                 : 1h 45mn\nDuration_LastFrame                       : -10ms\nBit rate mode                            : Constant\nBit rate                                 : 128 Kbps\nChannel(s)                               : 2 channels\nChannel positions                        : Front: L R\nSampling rate                            : 44.1 KHz\nCompression mode                         : Lossy\nStream size                              : 96.7 MiB (32%)\n\n\n_________________________________________________________\n\nSummary:\nEmiya Shirou finds himself an unwilling participant in a deadly competition where seven Mages summon heroic spirits as servants to duel each other to the death. They compete for the chance to make a wish from the Holy Grail, which has the power to grant any wish. Shirou is unskilled as a mage and knows nothing of the Holy Grail War, but he and his servant, Saber, enter into a temporary partnership with another Mage, Toosaka Rin. However, problems arise between Shirou and Rin's servant, Archer, who seems to despise him.\n\nfor updates:\ntwitter - @p7tricktorrent\nFacebook - /p7tricktorrent\n_________________________________________________________\n\nSEED!\n\nshare ratio:\n&quot;Scumbag = 0.1:1\nLeecher = 0.999:1\nMinimum = 1:1\nGood = 3:1\nGreat = 5:1\nAwesome = 10:1\n1337 = 100:1&quot;","torrent":{"xt":"urn:btih:5d5370057f0622e2a0e116ab287d11851960de47","amp;dn":"Fate%2FStay+Night%3A+Unlimited+Blade+Works","amp;tr":["udp%3A%2F%2Ftracker.openbittorrent.com%3A80","udp%3A%2F%2Fopen.demonii.com%3A1337","udp%3A%2F%2Ftracker.coppersurfer.tk%3A6969","udp%3A%2F%2Fexodus.desync.com%3A6969"],"infoHash":"5d5370057f0622e2a0e116ab287d11851960de47","infoHashBuffer":{"type":"Buffer","data":[93,83,112,5,127,6,34,226,160,225,22,171,40,125,17,133,25,96,222,71]},"announce":[],"urlList":[]}}